<svg xmlns="http://www.w3.org/2000/svg" viewBox="0 0 1600 420" role="img" aria-label="Scheduler PRO"><defs><linearGradient id="a" x1="0" y1="0" x2="1" y2="1"><stop offset="0" stop-color="#118AF5"/><stop offset=".48" stop-color="#00E5FF"/><stop offset="1" stop-color="#00C2B8"/></linearGradient></defs><g transform="translate(22 28) scale(.66)"><rect x="50" y="76" width="310" height="328" rx="54" fill="#fff"/><rect x="82" y="136" width="246" height="226" rx="28" fill="#0F1E3A"/><path d="M134 34v102M293 34v102" stroke="url(#a)" stroke-width="42" stroke-linecap="round"/><rect x="108" y="166" width="54" height="54" rx="8" fill="#fff"/><rect x="178" y="166" width="54" height="54" rx="8" fill="#fff"/><rect x="248" y="166" width="54" height="54" rx="8" fill="url(#a)"/><rect x="108" y="236" width="54" height="54" rx="8" fill="#fff"/><rect x="178" y="236" width="54" height="54" rx="8" fill="url(#a)"/><circle cx="350" cy="346" r="126" fill="#0F1E3A"/><circle cx="350" cy="346" r="110" fill="none" stroke="url(#a)" stroke-width="28"/><path d="M350 286v62h48" fill="none" stroke="#fff" stroke-width="28" stroke-linecap="round"/><path d="M304 360l43 43 84-95" fill="none" stroke="url(#a)" stroke-width="36" stroke-linecap="round"/></g><line x1="390" y1="78" x2="390" y2="342" stroke="#00E5FF" stroke-width="5"/><text x="430" y="278" fill="#fff" font-family="Inter Display,Inter,Segoe UI,Arial,sans-serif" font-weight="700" font-size="174">Scheduler</text><text x="1330" y="278" fill="#00E5FF" font-family="Inter Display,Inter,Segoe UI,Arial,sans-serif" font-weight="700" font-size="108">PRO</text></svg>
